<?xml version="1.0" encoding="utf-8" standalone="no"?>
<!DOCTYPE svg PUBLIC "-//W3C//DTD SVG 1.1//EN"
  "http://www.w3.org/Graphics/SVG/1.1/DTD/svg11.dtd">
<svg xmlns:xlink="http://www.w3.org/1999/xlink" width="360pt" height="360pt" viewBox="0 0 360 360" xmlns="http://www.w3.org/2000/svg" version="1.1">
 <metadata>
  <rdf:RDF xmlns:dc="http://purl.org/dc/elements/1.1/" xmlns:cc="http://creativecommons.org/ns#" xmlns:rdf="http://www.w3.org/1999/02/22-rdf-syntax-ns#">
   <cc:Work>
    <dc:type rdf:resource="http://purl.org/dc/dcmitype/StillImage"/>
    <dc:date>2022-05-30T22:00:16.601207</dc:date>
    <dc:format>image/svg+xml</dc:format>
    <dc:creator>
     <cc:Agent>
      <dc:title>Matplotlib v3.5.0, https://matplotlib.org/</dc:title>
     </cc:Agent>
    </dc:creator>
   </cc:Work>
  </rdf:RDF>
 </metadata>
 <defs>
  <style type="text/css">*{stroke-linejoin: round; stroke-linecap: butt}</style>
 </defs>
 <g id="figure_1">
  <g id="patch_1">
   <path d="M 0 360 
L 360 360 
L 360 0 
L 0 0 
L 0 360 
z
" style="fill: none"/>
  </g>
  <g id="axes_1">
   <g id="line2d_1">
    <path d="M 57.681818 302.645455 
L 64.356459 302.645455 
L 71.0311 302.645455 
L 77.705742 302.645455 
L 84.380383 302.645455 
L 91.055024 302.645455 
L 97.729665 302.645455 
L 104.404306 302.645455 
L 111.078947 302.645455 
L 117.753589 302.645455 
L 124.42823 302.645455 
L 131.102871 302.645455 
L 137.777512 302.645455 
L 144.452153 302.645455 
L 151.126794 302.645455 
L 157.801435 302.645455 
L 164.476077 302.645455 
L 171.150718 302.645455 
L 177.825359 302.645455 
L 184.5 302.645455 
" clip-path="url(#pb2a6c173c8)" style="fill: none; stroke: #000000; stroke-width: 0.75; stroke-linecap: square"/>
   </g>
   <g id="line2d_2">
    <path d="M 57.681818 302.645455 
L 64.356459 301.200478 
L 71.0311 299.755502 
L 77.705742 298.310526 
L 84.380383 296.86555 
L 91.055024 295.420574 
L 97.729665 293.975598 
L 104.404306 292.530622 
L 111.078947 291.085646 
L 117.753589 289.64067 
L 124.42823 288.195694 
L 131.102871 286.750718 
L 137.777512 285.305742 
L 144.452153 283.860766 
L 151.126794 282.415789 
L 157.801435 280.970813 
L 164.476077 279.525837 
L 171.150718 278.080861 
L 177.825359 276.635885 
L 184.5 275.190909 
" clip-path="url(#pb2a6c173c8)" style="fill: none; stroke: #000000; stroke-width: 0.75; stroke-linecap: square"/>
   </g>
   <g id="line2d_3">
    <path d="M 57.681818 302.645455 
L 64.356459 299.755502 
L 71.0311 296.86555 
L 77.705742 293.975598 
L 84.380383 291.085646 
L 91.055024 288.195694 
L 97.729665 285.305742 
L 104.404306 282.415789 
L 111.078947 279.525837 
L 117.753589 276.635885 
L 124.42823 273.745933 
L 131.102871 270.855981 
L 137.777512 267.966029 
L 144.452153 265.076077 
L 151.126794 262.186124 
L 157.801435 259.296172 
L 164.476077 256.40622 
L 171.150718 253.516268 
L 177.825359 250.626316 
L 184.5 247.736364 
" clip-path="url(#pb2a6c173c8)" style="fill: none; stroke: #000000; stroke-width: 0.75; stroke-linecap: square"/>
   </g>
   <g id="line2d_4">
    <path d="M 57.681818 302.645455 
L 64.356459 298.310526 
L 71.0311 293.975598 
L 77.705742 289.64067 
L 84.380383 285.305742 
L 91.055024 280.970813 
L 97.729665 276.635885 
L 104.404306 272.300957 
L 111.078947 267.966029 
L 117.753589 263.6311 
L 124.42823 259.296172 
L 131.102871 254.961244 
L 137.777512 250.626316 
L 144.452153 246.291388 
L 151.126794 241.956459 
L 157.801435 237.621531 
L 164.476077 233.286603 
L 171.150718 228.951675 
L 177.825359 224.616746 
L 184.5 220.281818 
" clip-path="url(#pb2a6c173c8)" style="fill: none; stroke: #000000; stroke-width: 0.75; stroke-linecap: square"/>
   </g>
   <g id="line2d_5">
    <path d="M 57.681818 302.645455 
L 64.356459 298.310526 
L 71.0311 293.975598 
L 77.705742 289.64067 
L 84.380383 285.305742 
L 91.055024 280.970813 
L 97.729665 276.635885 
L 104.404306 272.300957 
L 111.078947 267.966029 
L 117.753589 263.6311 
L 124.42823 259.296172 
L 131.102871 254.961244 
L 137.777512 250.626316 
L 144.452153 246.291388 
L 151.126794 241.956459 
L 157.801435 237.621531 
L 164.476077 233.286603 
L 171.150718 228.951675 
L 177.825359 224.616746 
L 184.5 220.281818 
" clip-path="url(#pb2a6c173c8)" style="fill: none; stroke: #000000; stroke-width: 0.75; stroke-linecap: square"/>
   </g>
   <g id="line2d_6">
    <path d="M 57.681818 302.645455 
L 63.244019 297.588038 
L 68.80622 292.530622 
L 74.368421 287.473206 
L 79.930622 282.415789 
L 85.492823 277.358373 
L 91.055024 272.300957 
L 96.617225 267.243541 
L 102.179426 262.186124 
L 107.741627 257.128708 
L 113.303828 252.071292 
L 118.866029 247.013876 
L 124.42823 241.956459 
L 129.990431 236.899043 
L 135.552632 231.841627 
L 141.114833 226.784211 
L 146.677033 221.726794 
L 152.239234 216.669378 
L 157.801435 211.611962 
L 163.363636 206.554545 
" clip-path="url(#pb2a6c173c8)" style="fill: none; stroke: #000000; stroke-width: 0.75; stroke-linecap: square"/>
   </g>
   <g id="line2d_7">
    <path d="M 57.681818 302.645455 
L 62.131579 296.86555 
L 66.58134 291.085646 
L 71.0311 285.305742 
L 75.480861 279.525837 
L 79.930622 273.745933 
L 84.380383 267.966029 
L 88.830144 262.186124 
L 93.279904 256.40622 
L 97.729665 250.626316 
L 102.179426 244.846411 
L 106.629187 239.066507 
L 111.078947 233.286603 
L 115.528708 227.506699 
L 119.978469 221.726794 
L 124.42823 215.94689 
L 128.87799 210.166986 
L 133.327751 204.387081 
L 137.777512 198.607177 
L 142.227273 192.827273 
" clip-path="url(#pb2a6c173c8)" style="fill: none; stroke: #000000; stroke-width: 0.75; stroke-linecap: square"/>
   </g>
   <g id="line2d_8">
    <path d="M 57.681818 302.645455 
L 61.019139 296.143062 
L 64.356459 289.64067 
L 67.69378 283.138278 
L 71.0311 276.635885 
L 74.368421 270.133493 
L 77.705742 263.6311 
L 81.043062 257.128708 
L 84.380383 250.626316 
L 87.717703 244.123923 
L 91.055024 237.621531 
L 94.392344 231.119139 
L 97.729665 224.616746 
L 101.066986 218.114354 
L 104.404306 211.611962 
L 107.741627 205.109569 
L 111.078947 198.607177 
L 114.416268 192.104785 
L 117.753589 185.602392 
L 121.090909 179.1 
" clip-path="url(#pb2a6c173c8)" style="fill: none; stroke: #000000; stroke-width: 0.75; stroke-linecap: square"/>
   </g>
   <g id="line2d_9">
    <path d="M 184.5 55.554545 
L 181.162679 62.056938 
L 177.825359 68.55933 
L 174.488038 75.061722 
L 171.150718 81.564115 
L 167.813397 88.066507 
L 164.476077 94.5689 
L 161.138756 101.071292 
L 157.801435 107.573684 
L 154.464115 114.076077 
L 151.126794 120.578469 
L 147.789474 127.080861 
L 144.452153 133.583254 
L 141.114833 140.085646 
L 137.777512 146.588038 
L 134.440191 153.090431 
L 131.102871 159.592823 
L 127.76555 166.095215 
L 124.42823 172.597608 
L 121.090909 179.1 
" clip-path="url(#pb2a6c173c8)" style="fill: none; stroke: #000000; stroke-width: 0.75; stroke-linecap: square"/>
   </g>
   <g id="line2d_10">
    <path d="M 184.5 55.554545 
L 182.27512 62.779426 
L 180.050239 70.004306 
L 177.825359 77.229187 
L 175.600478 84.454067 
L 173.375598 91.678947 
L 171.150718 98.903828 
L 168.925837 106.128708 
L 166.700957 113.353589 
L 164.476077 120.578469 
L 162.251196 127.803349 
L 160.026316 135.02823 
L 157.801435 142.25311 
L 155.576555 149.47799 
L 153.351675 156.702871 
L 151.126794 163.927751 
L 148.901914 171.152632 
L 146.677033 178.377512 
L 144.452153 185.602392 
L 142.227273 192.827273 
" clip-path="url(#pb2a6c173c8)" style="fill: none; stroke: #000000; stroke-width: 0.75; stroke-linecap: square"/>
   </g>
   <g id="line2d_11">
    <path d="M 184.5 55.554545 
L 183.38756 63.501914 
L 182.27512 71.449282 
L 181.162679 79.396651 
L 180.050239 87.344019 
L 178.937799 95.291388 
L 177.825359 103.238756 
L 176.712919 111.186124 
L 175.600478 119.133493 
L 174.488038 127.080861 
L 173.375598 135.02823 
L 172.263158 142.975598 
L 171.150718 150.922967 
L 170.038278 158.870335 
L 168.925837 166.817703 
L 167.813397 174.765072 
L 166.700957 182.71244 
L 165.588517 190.659809 
L 164.476077 198.607177 
L 163.363636 206.554545 
" clip-path="url(#pb2a6c173c8)" style="fill: none; stroke: #000000; stroke-width: 0.75; stroke-linecap: square"/>
   </g>
   <g id="line2d_12">
    <path d="M 184.5 55.554545 
L 184.5 64.224402 
L 184.5 72.894258 
L 184.5 81.564115 
L 184.5 90.233971 
L 184.5 98.903828 
L 184.5 107.573684 
L 184.5 116.243541 
L 184.5 124.913397 
L 184.5 133.583254 
L 184.5 142.25311 
L 184.5 150.922967 
L 184.5 159.592823 
L 184.5 168.262679 
L 184.5 176.932536 
L 184.5 185.602392 
L 184.5 194.272249 
L 184.5 202.942105 
L 184.5 211.611962 
L 184.5 220.281818 
" clip-path="url(#pb2a6c173c8)" style="fill: none; stroke: #000000; stroke-width: 0.75; stroke-linecap: square"/>
   </g>
   <g id="line2d_13">
    <path d="M 184.5 55.554545 
L 184.5 64.224402 
L 184.5 72.894258 
L 184.5 81.564115 
L 184.5 90.233971 
L 184.5 98.903828 
L 184.5 107.573684 
L 184.5 116.243541 
L 184.5 124.913397 
L 184.5 133.583254 
L 184.5 142.25311 
L 184.5 150.922967 
L 184.5 159.592823 
L 184.5 168.262679 
L 184.5 176.932536 
L 184.5 185.602392 
L 184.5 194.272249 
L 184.5 202.942105 
L 184.5 211.611962 
L 184.5 220.281818 
" clip-path="url(#pb2a6c173c8)" style="fill: none; stroke: #000000; stroke-width: 0.75; stroke-linecap: square"/>
   </g>
   <g id="line2d_14">
    <path d="M 184.5 55.554545 
L 185.61244 63.501914 
L 186.72488 71.449282 
L 187.837321 79.396651 
L 188.949761 87.344019 
L 190.062201 95.291388 
L 191.174641 103.238756 
L 192.287081 111.186124 
L 193.399522 119.133493 
L 194.511962 127.080861 
L 195.624402 135.02823 
L 196.736842 142.975598 
L 197.849282 150.922967 
L 198.961722 158.870335 
L 200.074163 166.817703 
L 201.186603 174.765072 
L 202.299043 182.71244 
L 203.411483 190.659809 
L 204.523923 198.607177 
L 205.636364 206.554545 
" clip-path="url(#pb2a6c173c8)" style="fill: none; stroke: #000000; stroke-width: 0.75; stroke-linecap: square"/>
   </g>
   <g id="line2d_15">
    <path d="M 184.5 55.554545 
L 186.72488 62.779426 
L 188.949761 70.004306 
L 191.174641 77.229187 
L 193.399522 84.454067 
L 195.624402 91.678947 
L 197.849282 98.903828 
L 200.074163 106.128708 
L 202.299043 113.353589 
L 204.523923 120.578469 
L 206.748804 127.803349 
L 208.973684 135.02823 
L 211.198565 142.25311 
L 213.423445 149.47799 
L 215.648325 156.702871 
L 217.873206 163.927751 
L 220.098086 171.152632 
L 222.322967 178.377512 
L 224.547847 185.602392 
L 226.772727 192.827273 
" clip-path="url(#pb2a6c173c8)" style="fill: none; stroke: #000000; stroke-width: 0.75; stroke-linecap: square"/>
   </g>
   <g id="line2d_16">
    <path d="M 184.5 55.554545 
L 187.837321 62.056938 
L 191.174641 68.55933 
L 194.511962 75.061722 
L 197.849282 81.564115 
L 201.186603 88.066507 
L 204.523923 94.5689 
L 207.861244 101.071292 
L 211.198565 107.573684 
L 214.535885 114.076077 
L 217.873206 120.578469 
L 221.210526 127.080861 
L 224.547847 133.583254 
L 227.885167 140.085646 
L 231.222488 146.588038 
L 234.559809 153.090431 
L 237.897129 159.592823 
L 241.23445 166.095215 
L 244.57177 172.597608 
L 247.909091 179.1 
" clip-path="url(#pb2a6c173c8)" style="fill: none; stroke: #000000; stroke-width: 0.75; stroke-linecap: square"/>
   </g>
   <g id="line2d_17">
    <path d="M 311.318182 302.645455 
L 307.980861 296.143062 
L 304.643541 289.64067 
L 301.30622 283.138278 
L 297.9689 276.635885 
L 294.631579 270.133493 
L 291.294258 263.6311 
L 287.956938 257.128708 
L 284.619617 250.626316 
L 281.282297 244.123923 
L 277.944976 237.621531 
L 274.607656 231.119139 
L 271.270335 224.616746 
L 267.933014 218.114354 
L 264.595694 211.611962 
L 261.258373 205.109569 
L 257.921053 198.607177 
L 254.583732 192.104785 
L 251.246411 185.602392 
L 247.909091 179.1 
" clip-path="url(#pb2a6c173c8)" style="fill: none; stroke: #000000; stroke-width: 0.75; stroke-linecap: square"/>
   </g>
   <g id="line2d_18">
    <path d="M 311.318182 302.645455 
L 306.868421 296.86555 
L 302.41866 291.085646 
L 297.9689 285.305742 
L 293.519139 279.525837 
L 289.069378 273.745933 
L 284.619617 267.966029 
L 280.169856 262.186124 
L 275.720096 256.40622 
L 271.270335 250.626316 
L 266.820574 244.846411 
L 262.370813 239.066507 
L 257.921053 233.286603 
L 253.471292 227.506699 
L 249.021531 221.726794 
L 244.57177 215.94689 
L 240.12201 210.166986 
L 235.672249 204.387081 
L 231.222488 198.607177 
L 226.772727 192.827273 
" clip-path="url(#pb2a6c173c8)" style="fill: none; stroke: #000000; stroke-width: 0.75; stroke-linecap: square"/>
   </g>
   <g id="line2d_19">
    <path d="M 311.318182 302.645455 
L 305.755981 297.588038 
L 300.19378 292.530622 
L 294.631579 287.473206 
L 289.069378 282.415789 
L 283.507177 277.358373 
L 277.944976 272.300957 
L 272.382775 267.243541 
L 266.820574 262.186124 
L 261.258373 257.128708 
L 255.696172 252.071292 
L 250.133971 247.013876 
L 244.57177 241.956459 
L 239.009569 236.899043 
L 233.447368 231.841627 
L 227.885167 226.784211 
L 222.322967 221.726794 
L 216.760766 216.669378 
L 211.198565 211.611962 
L 205.636364 206.554545 
" clip-path="url(#pb2a6c173c8)" style="fill: none; stroke: #000000; stroke-width: 0.75; stroke-linecap: square"/>
   </g>
   <g id="line2d_20">
    <path d="M 311.318182 302.645455 
L 304.643541 298.310526 
L 297.9689 293.975598 
L 291.294258 289.64067 
L 284.619617 285.305742 
L 277.944976 280.970813 
L 271.270335 276.635885 
L 264.595694 272.300957 
L 257.921053 267.966029 
L 251.246411 263.6311 
L 244.57177 259.296172 
L 237.897129 254.961244 
L 231.222488 250.626316 
L 224.547847 246.291388 
L 217.873206 241.956459 
L 211.198565 237.621531 
L 204.523923 233.286603 
L 197.849282 228.951675 
L 191.174641 224.616746 
L 184.5 220.281818 
" clip-path="url(#pb2a6c173c8)" style="fill: none; stroke: #000000; stroke-width: 0.75; stroke-linecap: square"/>
   </g>
   <g id="line2d_21">
    <path d="M 311.318182 302.645455 
L 304.643541 298.310526 
L 297.9689 293.975598 
L 291.294258 289.64067 
L 284.619617 285.305742 
L 277.944976 280.970813 
L 271.270335 276.635885 
L 264.595694 272.300957 
L 257.921053 267.966029 
L 251.246411 263.6311 
L 244.57177 259.296172 
L 237.897129 254.961244 
L 231.222488 250.626316 
L 224.547847 246.291388 
L 217.873206 241.956459 
L 211.198565 237.621531 
L 204.523923 233.286603 
L 197.849282 228.951675 
L 191.174641 224.616746 
L 184.5 220.281818 
" clip-path="url(#pb2a6c173c8)" style="fill: none; stroke: #000000; stroke-width: 0.75; stroke-linecap: square"/>
   </g>
   <g id="line2d_22">
    <path d="M 311.318182 302.645455 
L 304.643541 299.755502 
L 297.9689 296.86555 
L 291.294258 293.975598 
L 284.619617 291.085646 
L 277.944976 288.195694 
L 271.270335 285.305742 
L 264.595694 282.415789 
L 257.921053 279.525837 
L 251.246411 276.635885 
L 244.57177 273.745933 
L 237.897129 270.855981 
L 231.222488 267.966029 
L 224.547847 265.076077 
L 217.873206 262.186124 
L 211.198565 259.296172 
L 204.523923 256.40622 
L 197.849282 253.516268 
L 191.174641 250.626316 
L 184.5 247.736364 
" clip-path="url(#pb2a6c173c8)" style="fill: none; stroke: #000000; stroke-width: 0.75; stroke-linecap: square"/>
   </g>
   <g id="line2d_23">
    <path d="M 311.318182 302.645455 
L 304.643541 301.200478 
L 297.9689 299.755502 
L 291.294258 298.310526 
L 284.619617 296.86555 
L 277.944976 295.420574 
L 271.270335 293.975598 
L 264.595694 292.530622 
L 257.921053 291.085646 
L 251.246411 289.64067 
L 244.57177 288.195694 
L 237.897129 286.750718 
L 231.222488 285.305742 
L 224.547847 283.860766 
L 217.873206 282.415789 
L 211.198565 280.970813 
L 204.523923 279.525837 
L 197.849282 278.080861 
L 191.174641 276.635885 
L 184.5 275.190909 
" clip-path="url(#pb2a6c173c8)" style="fill: none; stroke: #000000; stroke-width: 0.75; stroke-linecap: square"/>
   </g>
   <g id="line2d_24">
    <path d="M 311.318182 302.645455 
L 304.643541 302.645455 
L 297.9689 302.645455 
L 291.294258 302.645455 
L 284.619617 302.645455 
L 277.944976 302.645455 
L 271.270335 302.645455 
L 264.595694 302.645455 
L 257.921053 302.645455 
L 251.246411 302.645455 
L 244.57177 302.645455 
L 237.897129 302.645455 
L 231.222488 302.645455 
L 224.547847 302.645455 
L 217.873206 302.645455 
L 211.198565 302.645455 
L 204.523923 302.645455 
L 197.849282 302.645455 
L 191.174641 302.645455 
L 184.5 302.645455 
" clip-path="url(#pb2a6c173c8)" style="fill: none; stroke: #000000; stroke-width: 0.75; stroke-linecap: square"/>
   </g>
   <g id="LineCollection_1">
    <path d="M 121.090909 179.1 
L 247.909091 179.1 
" clip-path="url(#pb2a6c173c8)" style="fill: none; stroke-dasharray: 0.75,1.2375; stroke-dashoffset: 0; stroke: #000000; stroke-width: 0.75"/>
    <path d="M 247.909091 179.1 
L 184.5 302.645455 
" clip-path="url(#pb2a6c173c8)" style="fill: none; stroke-dasharray: 0.75,1.2375; stroke-dashoffset: 0; stroke: #000000; stroke-width: 0.75"/>
    <path d="M 184.5 302.645455 
L 121.090909 179.1 
" clip-path="url(#pb2a6c173c8)" style="fill: none; stroke-dasharray: 0.75,1.2375; stroke-dashoffset: 0; stroke: #000000; stroke-width: 0.75"/>
   </g>
   <g id="LineCollection_2">
    <path d="M 57.681818 302.645455 
L 184.5 55.554545 
" clip-path="url(#pb2a6c173c8)" style="fill: none; stroke: #000000; stroke-width: 0.75"/>
    <path d="M 184.5 55.554545 
L 311.318182 302.645455 
" clip-path="url(#pb2a6c173c8)" style="fill: none; stroke: #000000; stroke-width: 0.75"/>
    <path d="M 311.318182 302.645455 
L 57.681818 302.645455 
" clip-path="url(#pb2a6c173c8)" style="fill: none; stroke: #000000; stroke-width: 0.75"/>
   </g>
  </g>
 </g>
 <defs>
  <clipPath id="pb2a6c173c8">
   <rect x="45" y="43.2" width="279" height="271.8"/>
  </clipPath>
 </defs>
</svg>
